<svg xmlns="http://www.w3.org/2000/svg" viewBox="0 0 512 512" fill="none">
  <defs>
    <linearGradient id="bg" x1="0" y1="0" x2="1" y2="1">
      <stop offset="0%" stop-color="#6b21a8"/>
      <stop offset="100%" stop-color="#581c87"/>
    </linearGradient>
  </defs>
  <rect width="512" height="512" rx="108" fill="url(#bg)"/>
  <g transform="translate(96, 96) scale(13.33)" stroke="white" stroke-width="1.5" stroke-linecap="round" stroke-linejoin="round">
    <path d="m21.64 3.64-1.28-1.28a1.21 1.21 0 0 0-1.72 0L2.36 18.64a1.21 1.21 0 0 0 0 1.72l1.28 1.28a1.2 1.2 0 0 0 1.72 0L21.64 5.36a1.2 1.2 0 0 0 0-1.72"/>
    <path d="m14 7 3 3"/>
    <path d="M5 6v4"/>
    <path d="M19 14v4"/>
    <path d="M10 2v2"/>
    <path d="M7 8H3"/>
    <path d="M21 16h-4"/>
    <path d="M11 3H9"/>
  </g>
</svg>
